<svg id="Layer_1" data-name="Layer 1" xmlns="http://www.w3.org/2000/svg" viewBox="0 0 500 160" width="500" height="160"><defs><style>.cls-1{fill:#22545a;}.cls-2{fill:#fff;}.cls-3{fill:#56b4bf;}.cls-4{fill:#ff7101;}.cls-5{fill:#a6babd;}</style></defs><title>Powered-By-InfoSum_DARK</title><rect class="cls-1" x="3.03" y="4.7" width="493.93" height="150.6" rx="13.91"/><path class="cls-2" d="M163,66V95.52h-1.77V66Z"/><path class="cls-2" d="M192.06,66l19.73,26.83V66h1.73V95.52h-2.07L191.76,68.7V95.52H190V66Z"/><path class="cls-2" d="M258.34,66v1.74h-16V80.49h14.19v1.77H242.33V95.52h-1.77V66Z"/><path class="cls-2" d="M308.23,80.74A15.3,15.3,0,1,1,292.94,66,15.06,15.06,0,0,1,308.23,80.74Zm-28.77,0a13.48,13.48,0,1,0,13.48-13.06A13.33,13.33,0,0,0,279.46,80.74Z"/><path class="cls-2" d="M340.29,70.43c-2.91,0-4.81,1.1-4.81,3.08,0,6.47,16,3,15.92,13.65,0,5.28-4.64,8.53-11.15,8.53A18.17,18.17,0,0,1,328.17,91l2.15-4.3a15.63,15.63,0,0,0,10,4.3c3.46,0,5.53-1.31,5.53-3.59,0-6.59-16-2.91-16-13.43,0-5.07,4.35-8.24,10.77-8.24a19.28,19.28,0,0,1,10.35,3L349,73.18A17.61,17.61,0,0,0,340.29,70.43Z"/><path class="cls-2" d="M386.46,91.26c4.82,0,7.82-3,7.82-8V66h5V83.27c0,7.73-4.86,12.47-12.85,12.47S373.54,91,373.54,83.27V66h5V83.27C378.52,88.26,381.61,91.26,386.46,91.26Z"/><path class="cls-2" d="M429.22,66,439,85.6,448.69,66h5.87V95.52H450l0-22.09-9.34,19h-3.25l-9.34-19V95.52H423.3V66Z"/><path class="cls-3" d="M117.09,66.37H103.2V52.48A14.62,14.62,0,0,0,88.57,37.86h0A14.62,14.62,0,0,0,74,52.48V66.37h7.61A21.64,21.64,0,0,1,103.2,88v7.61h13.89A14.62,14.62,0,0,0,131.71,81h0A14.62,14.62,0,0,0,117.09,66.37Z"/><path class="cls-4" d="M95.59,95.62A21.64,21.64,0,0,1,74,74V66.37H60.06A14.62,14.62,0,0,0,45.44,81h0A14.62,14.62,0,0,0,60.06,95.62H74v13.89a14.62,14.62,0,0,0,14.63,14.62h0a14.62,14.62,0,0,0,14.62-14.62V95.62H95.59Z"/><path class="cls-1" d="M103.2,88A21.64,21.64,0,0,0,81.56,66.37H74V74A21.64,21.64,0,0,0,95.59,95.62h7.61Z"/><path class="cls-5" d="M171,43c0,2.86-1.86,4.51-5.07,4.51h-3.39v4.12h-1.49v-13H166C169.17,38.64,171,40.24,171,43Zm-1.43,0c0-2-1.35-3-3.69-3h-3.34v6.12h3.34C168.25,46.14,169.6,45.08,169.6,43Z"/><path class="cls-5" d="M189.58,45.14a6.81,6.81,0,1,1-6.79-6.53A6.63,6.63,0,0,1,189.58,45.14Zm-12.1,0a5.29,5.29,0,0,0,10.58,0,5.29,5.29,0,0,0-10.58,0Z"/><path class="cls-5" d="M195.56,38.64,199.13,50l3.52-11.32h1.48L207.7,50l3.52-11.32h1.54l-4.36,13h-1.52l-3.51-11-3.54,11h-1.52l-4.34-13Z"/><path class="cls-5" d="M227.21,38.64V40h-7.33v4.36h6.55v1.35h-6.55v4.53h7.57v1.37h-9.06v-13Z"/><path class="cls-5" d="M242.68,51.63,240,47.48c-.26,0-.54,0-.84,0h-3.45v4.12h-1.48v-13h4.93c3.25,0,5.12,1.6,5.12,4.36a4.06,4.06,0,0,1-2.93,4.2l3.06,4.43Zm-3.57-5.49c2.36,0,3.7-1.06,3.7-3.1s-1.34-3-3.7-3h-3.45v6.12Z"/><path class="cls-5" d="M260.11,38.64V40h-7.33v4.36h6.55v1.35h-6.55v4.53h7.57v1.37H251.3v-13Z"/><path class="cls-5" d="M279,45.14a6.48,6.48,0,0,1-6.73,6.49h-5.2v-13h5.25A6.47,6.47,0,0,1,279,45.14Zm-1.5,0A5.09,5.09,0,0,0,272.29,40h-3.73V50.26h3.79A5,5,0,0,0,277.51,45.16Z"/><path class="cls-5" d="M304.38,41.89A2.85,2.85,0,0,1,302,44.82a3.18,3.18,0,0,1,3,3.29c0,2.2-1.75,3.52-4.7,3.52H294.7v-13h5.47C302.79,38.64,304.38,39.85,304.38,41.89Zm-1.52.22c0-1.33-1-2.09-2.76-2.09h-3.92v4.25h3.92C301.84,44.27,302.86,43.49,302.86,42.11Zm.58,5.81c0-1.45-1.23-2.3-3.34-2.28h-3.92v4.62h3.92C302.21,50.28,303.44,49.42,303.44,47.92Z"/><path class="cls-5" d="M316.29,47.12v4.51h-1.47V47.16l-5-8.52h1.54l4.22,6.81,4.15-6.81h1.52Z"/></svg>